<?xml version="1.0" encoding="UTF-8" standalone="no"?>
<!-- Created with Inkscape (http://www.inkscape.org/) -->

<svg
   width="8.9688921mm"
   height="1.8446749mm"
   viewBox="0 0 8.9688921 1.8446749"
   version="1.1"
   id="svg1"
   inkscape:version="1.3.2 (091e20e, 2023-11-25, custom)"
   sodipodi:docname="confirmacao-envio.svg"
   xmlns:inkscape="http://www.inkscape.org/namespaces/inkscape"
   xmlns:sodipodi="http://sodipodi.sourceforge.net/DTD/sodipodi-0.dtd"
   xmlns="http://www.w3.org/2000/svg"
   xmlns:svg="http://www.w3.org/2000/svg">
  <sodipodi:namedview
     id="namedview1"
     pagecolor="#ffffff"
     bordercolor="#000000"
     borderopacity="0.25"
     inkscape:showpageshadow="2"
     inkscape:pageopacity="0.0"
     inkscape:pagecheckerboard="0"
     inkscape:deskcolor="#d1d1d1"
     inkscape:document-units="mm"
     inkscape:zoom="15.662534"
     inkscape:cx="14.652801"
     inkscape:cy="1.628089"
     inkscape:window-width="1920"
     inkscape:window-height="991"
     inkscape:window-x="2391"
     inkscape:window-y="-9"
     inkscape:window-maximized="1"
     inkscape:current-layer="layer1" />
  <defs
     id="defs1">
    <clipPath
       clipPathUnits="userSpaceOnUse"
       id="clipPath84">
      <path
         d="M 0,500 H 500 V 0 H 0 Z"
         transform="translate(-317.74801,-322.48141)"
         id="path84" />
    </clipPath>
    <clipPath
       clipPathUnits="userSpaceOnUse"
       id="clipPath82">
      <path
         d="M 0,500 H 500 V 0 H 0 Z"
         transform="translate(-315.34671,-322.48141)"
         id="path82" />
    </clipPath>
  </defs>
  <g
     inkscape:label="Camada 1"
     inkscape:groupmode="layer"
     id="layer1"
     transform="translate(-92.904461,-106.98291)">
    <path
       id="path81"
       d="M 0,0 -2.037,2.037 -1.496,2.578 -0.062,1.145 3.22,5.229 3.816,4.75 Z"
       style="fill:#7eb08e;fill-opacity:1;fill-rule:nonzero;stroke:none"
       transform="matrix(0.35277776,0,0,-0.35277776,99.679685,108.82758)"
       clip-path="url(#clipPath82)" />
    <path
       id="path83"
       d="M 0,0 -0.992,0.992 -0.451,1.534 -0.062,1.145 3.221,5.229 3.817,4.75 Z"
       style="fill:#7eb08e;fill-opacity:1;fill-rule:nonzero;stroke:none"
       transform="matrix(0.35277776,0,0,-0.35277776,100.5268,108.82758)"
       clip-path="url(#clipPath84)" />
    <path
       style="font-size:1.93195px;font-family:Roboto-Regular;text-align:end;text-anchor:end;fill:#7eb08e;stroke-width:0.352777"
       d="m 93.664789,108.49465 h -0.760328 v -0.14339 h 0.292434 v -0.94144 h -0.292434 v -0.1283 q 0.05943,0 0.12735,-0.009 0.06792,-0.0104 0.102823,-0.0292 0.04339,-0.0236 0.06792,-0.0594 0.02547,-0.0368 0.02924,-0.0981 h 0.146217 v 1.26595 h 0.286774 z m 1.228222,0 h -0.760328 v -0.14339 h 0.292434 v -0.94144 h -0.292434 v -0.1283 q 0.05943,0 0.12735,-0.009 0.06792,-0.0104 0.102824,-0.0292 0.04339,-0.0236 0.06792,-0.0594 0.02547,-0.0368 0.02924,-0.0981 h 0.146217 v 1.26595 h 0.286774 z m 0.757498,-0.78485 h -0.225457 v -0.26885 h 0.225457 z m 0,0.78485 h -0.225457 v -0.26885 h 0.225457 z m 1.416889,-0.4462 q 0,0.0981 -0.03585,0.18773 -0.03585,0.0896 -0.09811,0.15093 -0.06792,0.066 -0.162253,0.10188 -0.09339,0.0349 -0.216967,0.0349 -0.115087,0 -0.221684,-0.0245 -0.106597,-0.0236 -0.180177,-0.0575 v -0.19905 h 0.01321 q 0.07735,0.0491 0.18112,0.084 0.103767,0.034 0.20376,0.034 0.06698,0 0.129237,-0.0189 0.0632,-0.0189 0.112257,-0.066 0.04151,-0.0406 0.06226,-0.0972 0.0217,-0.0566 0.0217,-0.13112 0,-0.0726 -0.02547,-0.12263 -0.02453,-0.05 -0.06886,-0.0802 -0.04905,-0.0358 -0.119803,-0.05 -0.06981,-0.0151 -0.156594,-0.0151 -0.08301,0 -0.160367,0.0113 -0.07641,0.0113 -0.132067,0.0226 v -0.72353 h 0.845229 v 0.16508 H 96.3948 v 0.37356 q 0.04056,-0.004 0.08301,-0.006 0.04245,-0.002 0.07358,-0.002 0.114143,0 0.199987,0.0198 0.08584,0.0189 0.157537,0.0679 0.07547,0.0519 0.116973,0.13396 0.04151,0.0821 0.04151,0.20564 z m 1.237655,-0.25658 q 0,0.37827 -0.11886,0.55562 -0.117917,0.17641 -0.366957,0.17641 -0.252814,0 -0.369787,-0.17924 -0.116031,-0.17923 -0.116031,-0.55091 0,-0.3745 0.117917,-0.55279 0.117917,-0.17923 0.367901,-0.17923 0.252814,0 0.368844,0.18206 0.116973,0.18112 0.116973,0.54808 z m -0.248097,0.42827 q 0.03302,-0.0764 0.04434,-0.17923 0.01226,-0.10377 0.01226,-0.24904 0,-0.14339 -0.01226,-0.24904 -0.01132,-0.10566 -0.04528,-0.17924 -0.03302,-0.0726 -0.09056,-0.10942 -0.0566,-0.0368 -0.146217,-0.0368 -0.08867,0 -0.14716,0.0368 -0.05754,0.0368 -0.0915,0.11131 -0.03207,0.0698 -0.04434,0.18206 -0.01132,0.11226 -0.01132,0.24621 0,0.14716 0.01038,0.24621 0.01038,0.0991 0.04434,0.17735 0.03113,0.0736 0.08773,0.11226 0.05754,0.0387 0.151877,0.0387 0.08867,0 0.14716,-0.0368 0.05849,-0.0368 0.09056,-0.11131 z"
       id="text80-1"
       aria-label="11:50" />
  </g>
</svg>
