<?xml version="1.0" encoding="UTF-8" standalone="no"?>
<!-- Created with Inkscape (http://www.inkscape.org/) -->

<svg
   width="67.885727mm"
   height="24.061832mm"
   viewBox="0 0 67.885727 24.061833"
   version="1.1"
   id="svg1"
   inkscape:version="1.3.2 (091e20e, 2023-11-25, custom)"
   sodipodi:docname="topo-app.svg"
   xmlns:inkscape="http://www.inkscape.org/namespaces/inkscape"
   xmlns:sodipodi="http://sodipodi.sourceforge.net/DTD/sodipodi-0.dtd"
   xmlns="http://www.w3.org/2000/svg"
   xmlns:svg="http://www.w3.org/2000/svg">
  <sodipodi:namedview
     id="namedview1"
     pagecolor="#ffffff"
     bordercolor="#000000"
     borderopacity="0.25"
     inkscape:showpageshadow="2"
     inkscape:pageopacity="0.0"
     inkscape:pagecheckerboard="0"
     inkscape:deskcolor="#d1d1d1"
     inkscape:document-units="mm"
     inkscape:zoom="2.7687711"
     inkscape:cx="120.81172"
     inkscape:cy="141.57906"
     inkscape:window-width="1722"
     inkscape:window-height="1250"
     inkscape:window-x="2533"
     inkscape:window-y="41"
     inkscape:window-maximized="0"
     inkscape:current-layer="layer1"
     showguides="true">
    <sodipodi:guide
       position="67.877902,17.701711"
       orientation="1,0"
       id="guide1"
       inkscape:locked="false" />
  </sodipodi:namedview>
  <defs
     id="defs1">
    <clipPath
       clipPathUnits="userSpaceOnUse"
       id="clipPath7">
      <path
         d="M 0,500 H 500 V 0 H 0 Z"
         transform="translate(-328.33981,-434.33351)"
         id="path7" />
    </clipPath>
    <clipPath
       clipPathUnits="userSpaceOnUse"
       id="clipPath9">
      <path
         d="M 0,500 H 500 V 0 H 0 Z"
         transform="translate(-262.1104,-421.08111)"
         id="path9" />
    </clipPath>
    <clipPath
       clipPathUnits="userSpaceOnUse"
       id="clipPath11">
      <path
         d="M 0,500 H 500 V 0 H 0 Z"
         transform="translate(-275.59281,-418.33891)"
         id="path11" />
    </clipPath>
    <clipPath
       clipPathUnits="userSpaceOnUse"
       id="clipPath13">
      <path
         d="M 0,500 H 500 V 0 H 0 Z"
         transform="translate(-224.40771,-418.33891)"
         id="path13" />
    </clipPath>
    <clipPath
       clipPathUnits="userSpaceOnUse"
       id="clipPath15">
      <path
         d="M 0,500 H 500 V 0 H 0 Z"
         transform="translate(-261.02341,-92.5371)"
         id="path15" />
    </clipPath>
    <clipPath
       clipPathUnits="userSpaceOnUse"
       id="clipPath17">
      <path
         d="M 0,500 H 500 V 0 H 0 Z"
         id="path17" />
    </clipPath>
    <clipPath
       clipPathUnits="userSpaceOnUse"
       id="clipPath24">
      <path
         d="M 0,500 H 500 V 0 H 0 Z"
         id="path24" />
    </clipPath>
    <clipPath
       clipPathUnits="userSpaceOnUse"
       id="clipPath26">
      <path
         d="M 0,500 H 500 V 0 H 0 Z"
         transform="translate(-177.3447,-382.22951)"
         id="path26" />
    </clipPath>
    <clipPath
       clipPathUnits="userSpaceOnUse"
       id="clipPath28">
      <path
         d="M 0,500 H 500 V 0 H 0 Z"
         transform="translate(-282.76951,-384.85451)"
         id="path28" />
    </clipPath>
    <clipPath
       clipPathUnits="userSpaceOnUse"
       id="clipPath30">
      <path
         d="M 0,500 H 500 V 0 H 0 Z"
         transform="translate(-286.1611,-383.85251)"
         id="path30" />
    </clipPath>
    <clipPath
       clipPathUnits="userSpaceOnUse"
       id="clipPath32">
      <path
         d="M 0,500 H 500 V 0 H 0 Z"
         transform="translate(-300.79691,-386.02981)"
         id="path32" />
    </clipPath>
    <clipPath
       clipPathUnits="userSpaceOnUse"
       id="clipPath34">
      <path
         d="M 0,500 H 500 V 0 H 0 Z"
         transform="translate(-325.01661,-384.64451)"
         id="path34" />
    </clipPath>
    <clipPath
       clipPathUnits="userSpaceOnUse"
       id="clipPath36">
      <path
         d="M 0,500 H 500 V 0 H 0 Z"
         transform="translate(-325.01661,-381.82131)"
         id="path36" />
    </clipPath>
    <clipPath
       clipPathUnits="userSpaceOnUse"
       id="clipPath38">
      <path
         d="M 0,500 H 500 V 0 H 0 Z"
         transform="translate(-325.01661,-379.07961)"
         id="path38" />
    </clipPath>
    <clipPath
       clipPathUnits="userSpaceOnUse"
       id="clipPath41">
      <path
         d="M 0,500 H 500 V 0 H 0 Z"
         transform="matrix(1.3333333,0,0,-1.3333333,0,666.66667)"
         id="path41" />
    </clipPath>
    <clipPath
       clipPathUnits="userSpaceOnUse"
       id="clipPath39">
      <path
         d="M 168.26,131.671 H 307.989 V 110.729 H 168.26 Z"
         transform="translate(-299.21481,-110.72951)"
         id="path39" />
    </clipPath>
    <clipPath
       clipPathUnits="userSpaceOnUse"
       id="clipPath44">
      <path
         d="M 0,500 H 500 V 0 H 0 Z"
         transform="matrix(1.3333333,0,0,-1.3333333,0,666.66667)"
         id="path44" />
    </clipPath>
    <clipPath
       clipPathUnits="userSpaceOnUse"
       id="clipPath42">
      <path
         d="m 310.672,131.671 h 20.942 v -20.942 h -20.942 z"
         transform="translate(-331.61331,-121.2002)"
         id="path42" />
    </clipPath>
    <clipPath
       clipPathUnits="userSpaceOnUse"
       id="clipPath46">
      <path
         d="M 0,500 H 500 V 0 H 0 Z"
         transform="translate(-299.21481,-111.49511)"
         id="path46" />
    </clipPath>
    <clipPath
       clipPathUnits="userSpaceOnUse"
       id="clipPath48">
      <path
         d="M 0,500 H 500 V 0 H 0 Z"
         transform="translate(-331.61331,-121.9658)"
         id="path48" />
    </clipPath>
    <clipPath
       clipPathUnits="userSpaceOnUse"
       id="clipPath50">
      <path
         d="M 0,500 H 500 V 0 H 0 Z"
         transform="translate(-278.707,-117.8115)"
         id="path50" />
    </clipPath>
    <clipPath
       clipPathUnits="userSpaceOnUse"
       id="clipPath52">
      <path
         d="M 0,500 H 500 V 0 H 0 Z"
         transform="translate(-324.94041,-122.1719)"
         id="path52" />
    </clipPath>
    <clipPath
       clipPathUnits="userSpaceOnUse"
       id="clipPath54">
      <path
         d="M 0,500 H 500 V 0 H 0 Z"
         transform="translate(-321.54001,-121.12211)"
         id="path54" />
    </clipPath>
    <clipPath
       clipPathUnits="userSpaceOnUse"
       id="clipPath56">
      <path
         d="M 0,500 H 500 V 0 H 0 Z"
         transform="translate(-178.32081,-125.8916)"
         id="path56" />
    </clipPath>
    <clipPath
       clipPathUnits="userSpaceOnUse"
       id="clipPath58">
      <path
         d="M 0,500 H 500 V 0 H 0 Z"
         transform="translate(-177.62061,-123.11231)"
         id="path58" />
    </clipPath>
    <clipPath
       clipPathUnits="userSpaceOnUse"
       id="clipPath60">
      <path
         d="M 0,500 H 500 V 0 H 0 Z"
         transform="translate(-180.2505,-123.11231)"
         id="path60" />
    </clipPath>
    <clipPath
       clipPathUnits="userSpaceOnUse"
       id="clipPath62">
      <path
         d="M 0,500 H 500 V 0 H 0 Z"
         transform="translate(-175.76031,-121.08791)"
         id="path62" />
    </clipPath>
    <clipPath
       clipPathUnits="userSpaceOnUse"
       id="clipPath78">
      <path
         d="M 0,500 H 500 V 0 H 0 Z"
         transform="matrix(1.3333333,0,0,-1.3333333,0,666.66667)"
         id="path78" />
    </clipPath>
    <clipPath
       clipPathUnits="userSpaceOnUse"
       id="clipPath76">
      <path
         d="M 215.15,352.698 H 325.539 V 317.523 H 215.15 Z"
         transform="translate(-315.62011,-317.52341)"
         id="path76" />
    </clipPath>
    <clipPath
       clipPathUnits="userSpaceOnUse"
       id="clipPath80">
      <path
         d="M 0,500 H 500 V 0 H 0 Z"
         transform="translate(-315.62011,-317.90581)"
         id="path80" />
    </clipPath>
    <clipPath
       clipPathUnits="userSpaceOnUse"
       id="clipPath82">
      <path
         d="M 0,500 H 500 V 0 H 0 Z"
         transform="translate(-315.34671,-322.48141)"
         id="path82" />
    </clipPath>
    <clipPath
       clipPathUnits="userSpaceOnUse"
       id="clipPath84">
      <path
         d="M 0,500 H 500 V 0 H 0 Z"
         transform="translate(-317.74801,-322.48141)"
         id="path84" />
    </clipPath>
    <clipPath
       clipPathUnits="userSpaceOnUse"
       id="clipPath106">
      <path
         d="M 0,500 H 500 V 0 H 0 Z"
         transform="translate(-295.83891,-119.51951)"
         id="path106" />
    </clipPath>
    <clipPath
       clipPathUnits="userSpaceOnUse"
       id="clipPath108">
      <path
         d="M 0,500 H 500 V 0 H 0 Z"
         transform="translate(-295.83891,-123.96971)"
         id="path108" />
    </clipPath>
    <clipPath
       clipPathUnits="userSpaceOnUse"
       id="clipPath110">
      <path
         d="M 0,500 H 500 V 0 H 0 Z"
         transform="translate(-195.91851,-381.75151)"
         id="path110" />
    </clipPath>
    <clipPath
       clipPathUnits="userSpaceOnUse"
       id="clipPath112">
      <path
         d="M 0,500 H 500 V 0 H 0 Z"
         transform="translate(-190.4517,-384.73491)"
         id="path112" />
    </clipPath>
    <clipPath
       clipPathUnits="userSpaceOnUse"
       id="clipPath114">
      <path
         d="M 0,500 H 500 V 0 H 0 Z"
         transform="translate(-187.5879,-373.42041)"
         id="path114" />
    </clipPath>
  </defs>
  <g
     inkscape:label="Camada 1"
     inkscape:groupmode="layer"
     id="layer1"
     transform="translate(-26.45551,6.3500004)">
    <path
       id="path6"
       d="m 0,0 h -156.68 c -9.87,0 -17.872,-8.002 -17.872,-17.872 L -174.56,-68.185625 17.855568,-68.20677 17.872,-17.872 C 17.875222,-8.0020005 9.87,0 0,0"
       style="fill:#2c2c35;fill-opacity:1;fill-rule:nonzero;stroke:none"
       transform="matrix(0.35277776,0,0,-0.35277776,88.036396,-6.3500004)"
       clip-path="url(#clipPath7)"
       sodipodi:nodetypes="cssccsc" />
    <path
       id="path8"
       d="m 0,0 h -24.221 c -1.514,0 -2.742,-1.228 -2.742,-2.742 0,-1.515 1.228,-2.742 2.742,-2.742 H 0 c 1.515,0 2.742,1.227 2.742,2.742 C 2.742,-1.228 1.515,0 0,0"
       style="fill:#444058;fill-opacity:1;fill-rule:nonzero;stroke:none"
       transform="matrix(0.35277776,0,0,-0.35277776,64.672134,-1.6748482)"
       clip-path="url(#clipPath9)" />
    <path
       id="path10"
       d="m 0,0 c 0,-1.515 -1.228,-2.742 -2.742,-2.742 -1.515,0 -2.742,1.227 -2.742,2.742 0,1.515 1.227,2.742 2.742,2.742 C -1.228,2.742 0,1.515 0,0"
       style="fill:#444058;fill-opacity:1;fill-rule:nonzero;stroke:none"
       transform="matrix(0.35277776,0,0,-0.35277776,69.428427,-0.70746009)"
       clip-path="url(#clipPath11)" />
    <path
       id="path12"
       d="M 0,0 C 0,1.515 1.228,2.742 2.742,2.742 4.256,2.742 5.484,1.515 5.484,0 5.484,-1.515 4.256,-2.742 2.742,-2.742 1.228,-2.742 0,-1.515 0,0"
       style="fill:#444058;fill-opacity:1;fill-rule:nonzero;stroke:none"
       transform="matrix(0.35277776,0,0,-0.35277776,51.371462,-0.70746009)"
       clip-path="url(#clipPath13)" />
    <path
       id="path16"
       d="M 334.123,108.054 H 166.354 V 404.5 h 167.769 z"
       style="fill:#e7f7ff;fill-opacity:1;fill-rule:nonzero;stroke:none"
       transform="matrix(0.35277776,0,0,-0.0454155,-27.794588,22.545175)"
       clip-path="url(#clipPath17)" />
    <path
       id="path23"
       d="M 334.123,404.5 H 166.354 v -38.188 h 167.769 z"
       style="fill:#005e52;fill-opacity:1;fill-rule:nonzero;stroke:none"
       transform="matrix(0.35277776,0,0,-0.35277776,-27.794588,146.87321)"
       clip-path="url(#clipPath24)" />
    <path
       id="path25"
       d="m 0,0 h -5.498 l 2.397,2.749 -0.721,0.628 -3.373,-3.867 3.384,-3.605 0.698,0.655 -2.331,2.483 H 0 Z"
       style="fill:#ffffff;fill-opacity:1;fill-rule:nonzero;stroke:none"
       transform="matrix(0.35277776,0,0,-0.35277776,34.76868,12.031132)"
       clip-path="url(#clipPath26)" />
    <path
       id="path27"
       d="M 0,0 H -4.548 C -5.2,0 -5.729,-0.529 -5.729,-1.181 v -3.656 c 0,-0.653 0.529,-1.182 1.181,-1.182 H 0 c 0.652,0 1.182,0.529 1.182,1.182 v 3.656 C 1.182,-0.529 0.652,0 0,0"
       style="fill:#ffffff;fill-opacity:1;fill-rule:nonzero;stroke:none"
       transform="matrix(0.35277776,0,0,-0.35277776,71.960207,11.10509)"
       clip-path="url(#clipPath28)" />
    <path
       id="path29"
       d="M 0,0 -1.505,-1 C -1.621,-1.078 -1.69,-1.207 -1.69,-1.346 v -1.323 c 0,-0.139 0.069,-0.268 0.185,-0.345 L 0,-4.015 c 0.263,-0.174 0.613,0.014 0.613,0.329 v 3.357 C 0.613,-0.014 0.263,0.174 0,0"
       style="fill:#ffffff;fill-opacity:1;fill-rule:nonzero;stroke:none"
       transform="matrix(0.35277776,0,0,-0.35277776,73.156687,11.458574)"
       clip-path="url(#clipPath30)" />
    <path
       id="path31"
       d="m 0,0 c -0.437,0 -0.776,-0.381 -0.719,-0.813 0.166,-1.25 0.7,-3.655 2.402,-5.186 1.994,-1.795 3.788,-2.32 5.242,-2.443 0.433,-0.037 0.804,0.309 0.804,0.745 v 1.381 C 7.729,-6.142 7.59,-6.001 7.416,-6 7.15,-5.998 6.763,-5.987 6.45,-5.951 6.113,-5.913 5.743,-5.717 5.518,-5.58 5.391,-5.502 5.227,-5.526 5.125,-5.635 L 4.144,-6.687 c 0,0 -1.144,0.572 -1.859,1.328 -0.715,0.755 -1.286,1.776 -1.286,1.776 l 1.12,0.965 C 2.24,-2.513 2.281,-2.345 2.222,-2.196 2.13,-1.965 2,-1.603 1.937,-1.255 1.883,-0.946 1.857,-0.604 1.846,-0.355 1.836,-0.156 1.672,0 1.472,0 Z"
       style="fill:#ffffff;fill-opacity:1;fill-rule:nonzero;stroke:none"
       transform="matrix(0.35277776,0,0,-0.35277776,78.319872,10.690472)"
       clip-path="url(#clipPath32)" />
    <path
       id="path33"
       d="m 0,0 c 0,-0.561 -0.454,-1.016 -1.016,-1.016 -0.561,0 -1.015,0.455 -1.015,1.016 0,0.561 0.454,1.016 1.015,1.016 C -0.454,1.016 0,0.561 0,0"
       style="fill:#ffffff;fill-opacity:1;fill-rule:nonzero;stroke:none"
       transform="matrix(0.35277776,0,0,-0.35277776,86.864045,11.179174)"
       clip-path="url(#clipPath34)" />
    <path
       id="path35"
       d="m 0,0 c 0,-0.561 -0.454,-1.016 -1.016,-1.016 -0.561,0 -1.015,0.455 -1.015,1.016 0,0.561 0.454,1.016 1.015,1.016 C -0.454,1.016 0,0.561 0,0"
       style="fill:#ffffff;fill-opacity:1;fill-rule:nonzero;stroke:none"
       transform="matrix(0.35277776,0,0,-0.35277776,86.864045,12.175137)"
       clip-path="url(#clipPath36)" />
    <path
       id="path37"
       d="m 0,0 c 0,-0.561 -0.454,-1.016 -1.016,-1.016 -0.561,0 -1.015,0.455 -1.015,1.016 0,0.561 0.454,1.016 1.015,1.016 C -0.454,1.016 0,0.561 0,0"
       style="fill:#ffffff;fill-opacity:1;fill-rule:nonzero;stroke:none"
       transform="matrix(0.35277776,0,0,-0.35277776,86.864045,13.142347)"
       clip-path="url(#clipPath38)" />
    <path
       style="font-weight:500;font-size:2.97074px;font-family:Roboto-Medium;fill:#ffffff;stroke-width:0.352778"
       d="m 43.582977,12.65263 q 0,0.284309 -0.174066,0.438068 -0.172617,0.153759 -0.464179,0.153759 -0.06963,0 -0.185671,-0.01306 -0.116044,-0.0116 -0.194374,-0.02901 v -0.268353 h 0.01596 q 0.05947,0.02031 0.146506,0.04207 0.08703,0.02176 0.178418,0.02176 0.133452,0 0.211782,-0.03046 0.07978,-0.03046 0.117495,-0.08703 0.03916,-0.05802 0.04932,-0.142155 0.0116,-0.08413 0.0116,-0.194374 v -1.260534 h -0.456925 v -0.229188 h 0.744135 z m 1.917636,-0.248046 q 0,0.396002 -0.203078,0.62519 -0.203078,0.229188 -0.543958,0.229188 -0.343782,0 -0.54686,-0.229188 -0.201628,-0.229188 -0.201628,-0.62519 0,-0.396002 0.201628,-0.62519 0.203078,-0.230638 0.54686,-0.230638 0.34088,0 0.543958,0.230638 0.203078,0.229188 0.203078,0.62519 z m -0.281408,0 q 0,-0.31477 -0.123297,-0.467079 -0.123297,-0.153759 -0.342331,-0.153759 -0.221936,0 -0.345233,0.153759 -0.121847,0.152309 -0.121847,0.467079 0,0.304617 0.123298,0.462728 0.123297,0.15666 0.343782,0.15666 0.217583,0 0.34088,-0.15521 0.124748,-0.15666 0.124748,-0.464178 z m 1.962603,0.809411 h -0.271254 v -0.172616 q -0.03626,0.02466 -0.09864,0.06963 -0.06092,0.04352 -0.118945,0.06963 -0.06818,0.03336 -0.15666,0.05512 -0.08848,0.02321 -0.20743,0.02321 -0.219034,0 -0.371342,-0.145055 -0.152309,-0.145056 -0.152309,-0.369892 0,-0.184221 0.07833,-0.297365 0.07978,-0.114593 0.226287,-0.179869 0.147957,-0.06527 0.355386,-0.08848 0.20743,-0.02321 0.445321,-0.03481 v -0.04207 q 0,-0.09284 -0.03336,-0.153759 -0.03191,-0.06092 -0.09284,-0.09574 -0.05802,-0.03336 -0.139254,-0.04497 -0.08123,-0.0116 -0.169715,-0.0116 -0.107341,0 -0.239342,0.02901 -0.132,0.02756 -0.272704,0.08123 h -0.01451 v -0.277056 q 0.07978,-0.02176 0.230639,-0.04787 0.150858,-0.02611 0.297364,-0.02611 0.171166,0 0.297364,0.02901 0.127649,0.02756 0.220485,0.09574 0.09139,0.06673 0.139253,0.172616 0.04787,0.105891 0.04787,0.262551 z m -0.271254,-0.398903 v -0.451123 q -0.124748,0.0073 -0.294463,0.02176 -0.168264,0.01451 -0.266902,0.04207 -0.117495,0.03336 -0.190023,0.10444 -0.07253,0.06963 -0.07253,0.192924 0,0.139254 0.08413,0.210331 0.08413,0.06963 0.256749,0.06963 0.143605,0 0.262551,-0.05512 0.118945,-0.05657 0.220484,-0.134902 z m 0.249496,-1.949548 q -0.01596,0.220484 -0.111693,0.332177 -0.09574,0.111693 -0.256748,0.111693 -0.07833,0 -0.145056,-0.02756 -0.06673,-0.02901 -0.126198,-0.08268 -0.06818,-0.06237 -0.116045,-0.09284 -0.04642,-0.03191 -0.10299,-0.03191 -0.07543,0 -0.113143,0.06527 -0.03771,0.06527 -0.04352,0.175517 h -0.190023 q 0.01161,-0.219034 0.114594,-0.330727 0.10299,-0.111693 0.252397,-0.111693 0.07253,0 0.139254,0.02901 0.06818,0.02756 0.129099,0.07978 0.06818,0.05947 0.120396,0.08993 0.05367,0.02901 0.101539,0.02901 0.07398,0 0.114594,-0.06673 0.04207,-0.06672 0.04642,-0.168264 z m 1.92779,1.53904 q 0,0.396002 -0.203078,0.62519 -0.203078,0.229188 -0.543959,0.229188 -0.343782,0 -0.546859,-0.229188 -0.201628,-0.229188 -0.201628,-0.62519 0,-0.396002 0.201628,-0.62519 0.203077,-0.230638 0.546859,-0.230638 0.340881,0 0.543959,0.230638 0.203078,0.229188 0.203078,0.62519 z m -0.281408,0 q 0,-0.31477 -0.123297,-0.467079 -0.123298,-0.153759 -0.342332,-0.153759 -0.221935,0 -0.345232,0.153759 -0.121847,0.152309 -0.121847,0.467079 0,0.304617 0.123297,0.462728 0.123298,0.15666 0.343782,0.15666 0.217584,0 0.340881,-0.15521 0.124748,-0.15666 0.124748,-0.464178 z m 3.062125,0.809411 H 51.595852 V 13.04428 q -0.117495,0.101539 -0.245144,0.158111 -0.127649,0.05657 -0.277056,0.05657 -0.290111,0 -0.461277,-0.223385 -0.169715,-0.223386 -0.169715,-0.619388 0,-0.205979 0.05802,-0.366991 0.05947,-0.161012 0.159561,-0.274155 0.09864,-0.110243 0.229188,-0.168265 0.132001,-0.05802 0.272705,-0.05802 0.127649,0 0.226287,0.02756 0.09864,0.02611 0.207429,0.08268 v -0.702069 h 0.272705 z m -0.272705,-0.398903 v -0.929807 q -0.110242,-0.04932 -0.197275,-0.06818 -0.08703,-0.01886 -0.190023,-0.01886 -0.229188,0 -0.356837,0.159561 -0.127649,0.159561 -0.127649,0.452574 0,0.28866 0.09864,0.439518 0.09864,0.149408 0.316221,0.149408 0.116045,0 0.23499,-0.05077 0.118946,-0.05222 0.221935,-0.133451 z m 2.068495,0.398903 h -0.271254 v -0.172616 q -0.03626,0.02466 -0.09864,0.06963 -0.06092,0.04352 -0.118946,0.06963 -0.06818,0.03336 -0.15666,0.05512 -0.08848,0.02321 -0.20743,0.02321 -0.219034,0 -0.371342,-0.145055 -0.152309,-0.145056 -0.152309,-0.369892 0,-0.184221 0.07833,-0.297365 0.07978,-0.114593 0.226287,-0.179869 0.147957,-0.06527 0.355387,-0.08848 0.207429,-0.02321 0.445321,-0.03481 v -0.04207 q 0,-0.09284 -0.03336,-0.153759 -0.03191,-0.06092 -0.09284,-0.09574 -0.05802,-0.03336 -0.139253,-0.04497 -0.08123,-0.0116 -0.169715,-0.0116 -0.107342,0 -0.239342,0.02901 -0.132001,0.02756 -0.272705,0.08123 h -0.01451 v -0.277056 q 0.07978,-0.02176 0.230639,-0.04787 0.150858,-0.02611 0.297364,-0.02611 0.171166,0 0.297364,0.02901 0.127649,0.02756 0.220485,0.09574 0.09139,0.06673 0.139253,0.172616 0.04787,0.105891 0.04787,0.262551 z m -0.271254,-0.398903 v -0.451123 q -0.124748,0.0073 -0.294463,0.02176 -0.168265,0.01451 -0.266903,0.04207 -0.117495,0.03336 -0.190023,0.10444 -0.07253,0.06963 -0.07253,0.192924 0,0.139254 0.08413,0.210331 0.08413,0.06963 0.256748,0.06963 0.143605,0 0.262551,-0.05512 0.118946,-0.05657 0.220485,-0.134902 z m 3.432017,-0.217584 q 0,0.126199 -0.05947,0.249496 -0.05802,0.123297 -0.163913,0.20888 -0.116045,0.09284 -0.271254,0.145056 -0.153759,0.05222 -0.371343,0.05222 -0.233539,0 -0.420661,-0.04352 -0.185671,-0.04352 -0.378595,-0.129099 v -0.359738 h 0.02031 q 0.163913,0.136352 0.378596,0.21033 0.214682,0.07398 0.403255,0.07398 0.266902,0 0.414859,-0.100089 0.149407,-0.100088 0.149407,-0.266902 0,-0.143605 -0.07108,-0.211781 -0.06963,-0.06818 -0.213232,-0.105891 -0.108792,-0.02901 -0.236441,-0.04787 -0.126198,-0.01886 -0.268353,-0.04787 -0.28721,-0.06092 -0.426463,-0.207429 -0.137803,-0.147957 -0.137803,-0.384398 0,-0.271254 0.229188,-0.44387 0.229188,-0.174067 0.581673,-0.174067 0.227737,0 0.41776,0.04352 0.190023,0.04352 0.336529,0.107341 v 0.33943 h -0.02031 q -0.123298,-0.10444 -0.324925,-0.172616 -0.200177,-0.06963 -0.410508,-0.06963 -0.230638,0 -0.371342,0.09574 -0.139254,0.09574 -0.139254,0.246595 0,0.134901 0.06963,0.211781 0.06963,0.07688 0.245144,0.117495 0.09284,0.02031 0.264001,0.04932 0.171166,0.02901 0.290112,0.05947 0.240792,0.06382 0.362639,0.192924 0.121847,0.129099 0.121847,0.361188 z m 0.73253,-1.275039 h -0.307518 v -0.282858 h 0.307518 z m -0.01741,1.891526 h -0.272705 v -1.620272 h 0.272705 z m 0.815213,0 h -0.272705 v -2.257066 h 0.272705 z m 1.940845,-1.620272 -0.655652,1.620272 h -0.274155 l -0.6513,-1.620272 h 0.295914 l 0.501892,1.289545 0.497541,-1.289545 z m 1.557898,1.620272 h -0.271254 v -0.172616 q -0.03626,0.02466 -0.09864,0.06963 -0.06092,0.04352 -0.118946,0.06963 -0.06818,0.03336 -0.15666,0.05512 -0.08848,0.02321 -0.20743,0.02321 -0.219034,0 -0.371342,-0.145055 -0.152308,-0.145056 -0.152308,-0.369892 0,-0.184221 0.07833,-0.297365 0.07978,-0.114593 0.226286,-0.179869 0.147957,-0.06527 0.355387,-0.08848 0.207429,-0.02321 0.445321,-0.03481 v -0.04207 q 0,-0.09284 -0.03336,-0.153759 -0.03191,-0.06092 -0.09284,-0.09574 -0.05802,-0.03336 -0.139253,-0.04497 -0.08123,-0.0116 -0.169715,-0.0116 -0.107341,0 -0.239342,0.02901 -0.132001,0.02756 -0.272705,0.08123 h -0.0145 v -0.277056 q 0.07978,-0.02176 0.230638,-0.04787 0.150858,-0.02611 0.297364,-0.02611 0.171166,0 0.297364,0.02901 0.127649,0.02756 0.220485,0.09574 0.09139,0.06673 0.139253,0.172616 0.04787,0.105891 0.04787,0.262551 z m -0.271254,-0.398903 v -0.451123 q -0.124748,0.0073 -0.294463,0.02176 -0.168265,0.01451 -0.266903,0.04207 -0.117495,0.03336 -0.190023,0.10444 -0.07253,0.06963 -0.07253,0.192924 0,0.139254 0.08413,0.210331 0.08413,0.06963 0.256748,0.06963 0.143605,0 0.262551,-0.05512 0.118946,-0.05657 0.220485,-0.134902 z"
       id="text38"
       aria-label="João da Silva" />
    <path
       id="path109"
       d="m 0,0 c 0,-4.601 -3.73,-8.331 -8.331,-8.331 -4.601,0 -8.331,3.73 -8.331,8.331 0,4.601 3.73,8.331 8.331,8.331 C -3.73,8.331 0,4.601 0,0"
       style="fill:#d9e3e9;fill-opacity:1;fill-rule:nonzero;stroke:none"
       transform="matrix(0.35277776,0,0,-0.35277776,41.321105,12.199761)"
       clip-path="url(#clipPath110)" />
    <path
       id="path111"
       d="m 0,0 c 0,-1.582 -1.282,-2.864 -2.864,-2.864 -1.582,0 -2.864,1.282 -2.864,2.864 0,1.582 1.282,2.864 2.864,2.864 C -1.282,2.864 0,1.582 0,0"
       style="fill:#ffffff;fill-opacity:1;fill-rule:nonzero;stroke:none"
       transform="matrix(0.35277776,0,0,-0.35277776,39.392539,11.147283)"
       clip-path="url(#clipPath112)" />
    <path
       id="path113"
       d="M 0,0 C 2.631,0 4.973,1.223 6.5,3.127 5.28,5.476 2.83,7.083 0,7.083 -2.83,7.083 -5.28,5.476 -6.5,3.127 -4.973,1.223 -2.631,0 0,0"
       style="fill:#ffffff;fill-opacity:1;fill-rule:nonzero;stroke:none"
       transform="matrix(0.35277776,0,0,-0.35277776,38.382254,15.138787)"
       clip-path="url(#clipPath114)" />
  </g>
</svg>
